<svg class="app-c-markdown-editor__toolbar-icon" version="1.1" viewBox="0 0 50 50" width="50" height="50" aria-hidden="true">
  <path d="M18.86,32.09a4.76,4.76,0,0,1-3.42-1.43,5.05,5.05,0,0,1-1-1.64A5.67,5.67,0,0,1,14,26.9a7.87,7.87,0,0,1,.45-2.56,8.36,8.36,0,0,1,1.4-2.5,10.74,10.74,0,0,1,2.37-2.15,11.07,11.07,0,0,1,3.39-1.5l.77-.25.74,2.35-.45.14A9.08,9.08,0,0,0,19.85,22a5.32,5.32,0,0,0-1.68,2.22h.74a4,4,0,0,1,2.82,1.1,3.85,3.85,0,0,1,.86,1.23,3.77,3.77,0,0,1,.32,1.54,3.87,3.87,0,0,1-.31,1.56,4,4,0,0,1-.86,1.27,4.06,4.06,0,0,1-1.29.85A4.16,4.16,0,0,1,18.86,32.09Zm12.85,0a4.76,4.76,0,0,1-3.42-1.43,5.05,5.05,0,0,1-1-1.64,5.67,5.67,0,0,1-.39-2.11,7.87,7.87,0,0,1,.45-2.56,8.36,8.36,0,0,1,1.4-2.5,10.74,10.74,0,0,1,2.37-2.15,11.11,11.11,0,0,1,3.39-1.5l.77-.25L36,20.27l-.45.14A9.08,9.08,0,0,0,32.7,22,5.32,5.32,0,0,0,31,24.19h.74a4,4,0,0,1,2.82,1.1,3.85,3.85,0,0,1,.86,1.23,3.77,3.77,0,0,1,.32,1.54,3.87,3.87,0,0,1-.31,1.56,4,4,0,0,1-.86,1.27,4.06,4.06,0,0,1-1.29.85A4.16,4.16,0,0,1,31.71,32.06Z"/>
</svg>
