<svg class="app-c-markdown-editor__toolbar-icon" version="1.1" viewBox="0 0 50 50" width="50" height="50" aria-hidden="true">
  <path d="M24.51,26.41l-8.78,0,0,7.89h-2l0-17.17h2l0,7.46,8.78,0,0-7.46h2.06l0,17.17H24.53Z"/>
  <path d="M30.22,23.57a2.87,2.87,0,0,0,.91,1.22,2.56,2.56,0,0,0,1.62.47,2.89,2.89,0,0,0,1-.15,2,2,0,0,0,.7-.41,1.7,1.7,0,0,0,.42-.6,1.92,1.92,0,0,0,.14-.74A1.57,1.57,0,0,0,34.3,22a3,3,0,0,0-1.77-.48h-.45V20.4h.41a2.94,2.94,0,0,0,1-.16,2.19,2.19,0,0,0,.73-.44,1.75,1.75,0,0,0,.43-.6,1.72,1.72,0,0,0,.14-.68,1.6,1.6,0,0,0-.14-.64,1.75,1.75,0,0,0-.39-.56,1.71,1.71,0,0,0-.64-.38,2.61,2.61,0,0,0-.88-.14,2.41,2.41,0,0,0-1.47.45,2.65,2.65,0,0,0-.88,1.11l-1.07-.52a3.38,3.38,0,0,1,1.36-1.59,3.88,3.88,0,0,1,2.06-.56,4.14,4.14,0,0,1,1.34.21,3.19,3.19,0,0,1,1.06.59,2.76,2.76,0,0,1,.7.89,2.48,2.48,0,0,1,.25,1.11,2.44,2.44,0,0,1-.15.87,2.48,2.48,0,0,1-.41.71,2.25,2.25,0,0,1-.62.52,2.49,2.49,0,0,1-.76.29,2.51,2.51,0,0,1,2,1.59,2.45,2.45,0,0,1,.17.89,2.75,2.75,0,0,1-1.07,2.26,3.47,3.47,0,0,1-1.14.58,4.77,4.77,0,0,1-1.37.19,4.44,4.44,0,0,1-2.29-.59A3.26,3.26,0,0,1,29,24.1Z"/>
</svg>
