<svg class="app-c-markdown-editor__toolbar-icon" version="1.1" viewBox="0 0 50 50" width="50" height="50" aria-hidden="true">
  <path d="M23.43,27.12l-7.64,0,0,7.41H12.29l0-17.6h3.51l0,7,7.64,0,0-7h3.51l0,17.6H23.45Z"/>
  <path d="M33.55,17.46a2,2,0,0,0-.78.14,1.49,1.49,0,0,0-.55.4,1.66,1.66,0,0,0-.32.6,2.49,2.49,0,0,0-.1.74l-2.25-.2a3.88,3.88,0,0,1,.31-1.58,3.34,3.34,0,0,1,.85-1.16A3.67,3.67,0,0,1,32,15.69a5,5,0,0,1,1.59-.25,4.86,4.86,0,0,1,1.65.26,3.76,3.76,0,0,1,1.28.75,3.32,3.32,0,0,1,.82,1.15,3.68,3.68,0,0,1,.3,1.48,3.88,3.88,0,0,1-.35,1.64,5.67,5.67,0,0,1-.93,1.42A8,8,0,0,1,35,23.33a14.45,14.45,0,0,1-1.56,1l-.2.11h4.53v2l-7.92,0v-2q.61-.33,1.25-.71t1.24-.79q.6-.41,1.14-.86a7,7,0,0,0,.93-.92,4.49,4.49,0,0,0,.63-1,2.47,2.47,0,0,0,.23-1,1.82,1.82,0,0,0-.11-.61,1.58,1.58,0,0,0-.32-.53,1.53,1.53,0,0,0-.53-.37A1.84,1.84,0,0,0,33.55,17.46Z"/>
</svg>
