<svg class="app-c-markdown-editor__toolbar-icon" version="1.1" viewBox="0 0 50 50" width="50" height="50" aria-hidden="true">
  <path d="M34.14,15.81a3.78,3.78,0,0,0-2.69-1.11h0a3.79,3.79,0,0,0-2.69,1.12l-3.09,3.11a3.81,3.81,0,0,0-.93,3.84l.09.28,1.52-1.53v-.07a2,2,0,0,1,.58-1.27L30,17.08a2,2,0,1,1,2.88,2.86l-3.09,3.11a2,2,0,0,1-1.27.59h-.07l-1.52,1.53.28.09a3.81,3.81,0,0,0,3.84-.95l3.09-3.11a3.82,3.82,0,0,0,0-5.39Z"/>
  <path d="M25.19,26.93l-1.52,1.53v.07a2,2,0,0,1-.58,1.27L20,32.9A2,2,0,0,1,17.12,30l3.09-3.11a2,2,0,0,1,1.27-.59h.07l1.52-1.53-.28-.09a3.81,3.81,0,0,0-3.83.95l-3.09,3.11a3.81,3.81,0,0,0,2.7,6.5h0a3.79,3.79,0,0,0,2.69-1.12l3.09-3.11a3.8,3.8,0,0,0,.93-3.84Z"/>
  <polygon points="28.63 20.15 20.3 28.52 20.17 28.65 21.38 29.85 29.71 21.48 29.83 21.35 28.63 20.15"/>
</svg>
