<svg class="app-c-markdown-editor__toolbar-icon" version="1.1" viewBox="0 0 50 50" width="50" height="50" aria-hidden="true">
  <path d="M22,20.71v-3l15.55,0v3Z"/>
  <path d="M22,32.31v-3l15.55,0v3Z"/>
  <path d="M16.34,14.93l0,6.93H18.1V23.4H12.85V21.86H14.6V17.81H12.84V16.26h.59a2.34,2.34,0,0,0,.62-.07.79.79,0,0,0,.37-.21.75.75,0,0,0,.18-.36,2.6,2.6,0,0,0,0-.53v-.15Z"/>
  <path d="M15.39,28.14a1.44,1.44,0,0,0-.57.11,1.1,1.1,0,0,0-.41.3,1.23,1.23,0,0,0-.24.44,1.86,1.86,0,0,0-.08.55l-1.66-.15a2.89,2.89,0,0,1,.23-1.17,2.48,2.48,0,0,1,.62-.86,2.7,2.7,0,0,1,.93-.53,3.66,3.66,0,0,1,1.17-.18,3.56,3.56,0,0,1,1.21.2,2.76,2.76,0,0,1,.94.55,2.47,2.47,0,0,1,.61.86,2.75,2.75,0,0,1,.22,1.1,2.89,2.89,0,0,1-.26,1.22,4.21,4.21,0,0,1-.69,1.05,5.94,5.94,0,0,1-1,.88,10.64,10.64,0,0,1-1.15.72l-.15.08h3.34v1.46H12.66V33.32l.92-.53q.47-.28.91-.59t.84-.64a5.21,5.21,0,0,0,.69-.69,3.33,3.33,0,0,0,.46-.73,1.85,1.85,0,0,0,.17-.78,1.36,1.36,0,0,0-.08-.45,1.18,1.18,0,0,0-.23-.4,1.13,1.13,0,0,0-.39-.28A1.35,1.35,0,0,0,15.39,28.14Z"/>
</svg>
