<?xml version="1.0" encoding="UTF-8"?>
<svg viewBox="0 0 104 122" xmlns="http://www.w3.org/2000/svg">
<path d="m0.81268 5.0662l51.363 54.069c1.0996 1.1575 1.1 2.9735 8.258e-4 4.1315l-50.942 53.668c-1.1407 1.2017-1.0912 3.1006 0.11054 4.2412 0.55745 0.52914 1.2967 0.82413 2.0653 0.82413h41.812c0.8157 0 1.5962-0.33215 2.1618-0.91994l55.613-57.799c1.1179-1.1618 1.1176-2.9994-7.29e-4 -4.1609l-56.04-58.201c-0.56552-0.58733-1.3457-0.91919-2.1611-0.91919h-41.809c-1.6569 0-3 1.3431-3 3 0 0.76901 0.29531 1.5087 0.82496 2.0662z" fill-rule="evenodd"/>
</svg>
