<svg xmlns="http://www.w3.org/2000/svg" xmlns:xlink="http://www.w3.org/1999/xlink" viewBox="0 0 140 109">
  <defs>
    <path id="a" d="M0 0h93v109H0z"/>
  </defs>
  <g fill="none" fill-rule="evenodd" stroke-width="2" shape-rendering="geometricPrecision" vector-effect="non-scaling-stroke">
    <path fill="#FD0" fill-rule="nonzero" stroke="#000" stroke-width="2.5" d="M91.611237 52.6639273c1.037118 1.1432316 1.037466 2.8868605.000802 4.0305048L46.6210236 106.328396c-.3709165.409194-.3398864 1.041599.0693073 1.412515.1839444.166737.4233355.259089.6716035.259089H84.254263c.559784 0 1.093946-.234599 1.472697-.646795l46.534281-50.643363c1.054879-1.1480276 1.05457-2.9127296-.000709-4.0603883L85.36275 1.64627982C84.98402 1.23439602 84.450067 1 83.890527 1H47c-.5522848 0-1 .44771525-1 1 0 .24840526.0924536.48791876.2593567.67189844L91.611237 52.6639273z" vector-effect="non-scaling-stroke"/>
    <mask id="b" fill="#fff">
      <use xlink:href="#a"/>
    </mask>
    <path fill="#FD0" fill-rule="nonzero" stroke="#000" stroke-width="2.5" d="M-37.9966516 1l.3576762 107H2.7689834c.559783 0 1.0939457-.234599 1.4726965-.646795l46.5342804-50.6433632c1.0548793-1.1480275 1.054571-2.9127293-.0007095-4.0603881L3.8774704 1.64628002C3.4987402 1.2343961 2.9647868 1 2.4052469 1h-40.4018985z" mask="url(#b)" vector-effect="non-scaling-stroke"/>
  </g>
</svg>
