<svg xmlns="http://www.w3.org/2000/svg" xmlns:xlink="http://www.w3.org/1999/xlink" viewBox="0 0 134 107">
<defs>
<path id="a" d="M0 0h93v109H0z"/>
</defs>
<g fill="none" fill-rule="evenodd">
<path fill="#E61E32" fill-rule="nonzero" d="M91.611 51.664c1.0371 1.1432 1.0375 2.8869.000802 4.0305l-44.991 49.634c-.37092.40919-.33989 1.0416.069307 1.4125.18394.16674.42334.25909.6716.25909h36.892c.55978 0 1.0939-.2346 1.4727-.6468l46.534-50.643c1.0549-1.148 1.0546-2.9127-.000709-4.0604L85.3617.64689c-.37873-.41188-.91268-.64628-1.4722-.64628h-36.891c-.55228 0-1 .44772-1 1 0 .24841.092454.48792.25936.6719l45.352 49.992z"/>
<g transform="translate(0 -1)">
<mask id="b" fill="#fff">
<use xlink:href="#a"/>
</mask>
<path fill="#E61E32" fill-rule="nonzero" d="M-37.997 1l.35768 107h40.408c.55978 0 1.0939-.2346 1.4727-.6468l46.534-50.643c1.0549-1.148 1.0546-2.9127-.0007095-4.0604l-46.898-51.003c-.37873-.41188-.91268-.64628-1.4722-.64628h-40.402z" mask="url(#b)"/>
</g>
</g>
</svg>
