<svg fill="none" height="227" viewBox="0 0 227 227" width="227" xmlns="http://www.w3.org/2000/svg"><path d="m55.7 226.5c-30.4 0-55.2-24.8-55.2-55.2v-115.6c0-30.4 24.8-55.2 55.2-55.2h115.6c30.4 0 55.2 24.8 55.2 55.2v115.6c0 30.4-24.8 55.2-55.2 55.2z" fill="#0ba23b"/><path d="m171.3 1c30.2 0 54.7 24.5 54.7 54.7v115.6c0 30.2-24.5 54.7-54.7 54.7h-115.6c-30.2 0-54.7-24.5-54.7-54.7v-115.6c0-30.2 24.5-54.7 54.7-54.7zm0-1h-115.6c-30.7 0-55.7 25-55.7 55.7v115.6c0 30.7 25 55.7 55.7 55.7h115.6c30.7 0 55.7-25 55.7-55.7v-115.6c0-30.7-25-55.7-55.7-55.7z" fill="#0ba23b"/><path d="m113.5 52.7-.5-.3-112 112v6.9c0 7.3 1.5 14.3 4.1 20.7l107.9-107.9.5.3 108.2 108.2c2.8-6.5 4.3-13.8 4.3-21.3v-6.1z" fill="#fcf411"/><path d="m171.3 1h-3l57.7 57.7v-3c0-30.2-24.5-54.7-54.7-54.7z" fill="#fcf411"/><path d="m57.8 1h-2.1c-30.2 0-54.7 24.5-54.7 54.7v2.1z" fill="#fcf411"/><path d="m226 94.5-93.5-93.5h-38.8l-92.7 92.7v31.7l112-112 .5.3 112.5 112.5z" fill="#fcf411"/><path d="m205.8 213.8-92.3-92.3-.5-.3-92.2002 92.2c6 5 13.1 8.7 20.9 10.8l71.3002-71.3.5.3 71.1 71.1c7.9-1.9 15.1-5.6 21.2-10.5z" fill="#fcf411"/><path d="m112.1 188.3 1 1 .8-.8z" fill="#fcf411"/><path d="m149.8 226-36.7-36.7-36.7001 36.7z" fill="#fcf411"/><path d="m166.5 213.1h-106.0001c-25.7 0-46.6-20.9-46.6-46.6v-106c0-25.7 20.9-46.6 46.6-46.6h106.0001c25.7 0 46.6 20.9 46.6 46.6v106c0 25.7-20.9 46.6-46.6 46.6z" fill="#0071b9"/><g fill="#fff"><path d="m56.2998 56.7v48.5h119.7002v-48.5zm26.9 43.7-8.2-27h-.1l-5.4 27h-9.8l8.3-39h13l8 27.1h.1l5.5-27.1h9.8002l-8.3002 39zm39.7002 0 3.5-16.7h-12.3l-3.5 16.7h-10.4l8.1-39h10.5l-3.1 14.9h12.3l3.1-14.9h10.5l-8.1 39zm46.1-30.2c-2.7-1.2-5.6-1.8-8.6-1.8-4.1 0-7.5.6-7.5 3.7 0 5.5 15.1 3.5 15.1 15.3 0 10.8-10 13.6-19.1 13.6-4.1-.1-8.2-.8-12.1-2l2.4-7.9c2.1 1.3 6.2 2.2 9.6 2.2s8.3-.6 8.3-4.6c0-6.3-15.1-3.9-15.1-14.9 0-10.1 8.8-13.1 17.4-13.1 4.8 0 9.3.5 12 1.7z"/><path d="m50.5001 156.8c-.6.4-1.6.6-3 .9-1.3.2-2.8.3-4.3.3-2.6 0-4.9-.4-6.8-1.3s-3.6-2.1-4.9-3.7-2.3-3.4-2.9-5.5c-.7-2.1-1-4.4-1-6.9s.3-4.8 1-6.9 1.6-4 2.9-5.5c1.3-1.6 2.9-2.8 4.8-3.7s4.2-1.3 6.7-1.3c1.7 0 3.3.2 4.6.5s2.3.6 2.9.9l-.3 5.6c-.6-.3-1.5-.7-2.5-1.2s-2.3-.7-3.9-.7c-1.3 0-2.5.2-3.7.7-1.1.5-2.2 1.2-3 2.2-.9 1-1.6 2.3-2.1 3.8-.5 1.6-.8 3.4-.8 5.6s.3 4.1.8 5.6c.5 1.6 1.2 2.8 2.1 3.8s1.9 1.7 3 2.2 2.4.7 3.7.7c1.5 0 2.8-.2 3.8-.5s1.9-.7 2.6-1.3z"/><path d="m52.6001 140.6c0-3 .4-5.7 1.1-7.9s1.7-4 3-5.4c1.2-1.4 2.7-2.5 4.3-3.1 1.6-.7 3.3-1 5.1-1s3.4.3 5.1 1c1.6.7 3.1 1.7 4.3 3.1s2.2 3.2 3 5.4c.7 2.2 1.1 4.8 1.1 7.9 0 3-.4 5.7-1.1 7.9s-1.7 4-3 5.4c-1.2 1.4-2.7 2.5-4.3 3.1-1.6.7-3.3 1-5.1 1s-3.4-.3-5.1-1c-1.6-.7-3.1-1.7-4.3-3.1s-2.2-3.2-3-5.4c-.7-2.3-1.1-4.9-1.1-7.9zm6.4 0c0 2.3.2 4.3.6 5.9s.9 2.9 1.5 3.9 1.4 1.7 2.3 2.2 1.8.7 2.8.7 1.9-.2 2.8-.7 1.6-1.2 2.3-2.2c.6-1 1.1-2.3 1.5-3.9s.6-3.6.6-5.9-.2-4.3-.6-5.9-.9-2.9-1.5-3.9-1.4-1.7-2.3-2.2-1.8-.7-2.8-.7-1.9.2-2.8.7-1.6 1.2-2.3 2.2c-.6 1-1.1 2.3-1.5 3.9s-.6 3.5-.6 5.9z"/><path d="m80.3003 123.6h6.7l6.8 26.1h.1l6.9997-26.1h6.4l-10.2997 33.9h-6.6z"/><path d="m110.4 123.6h6.2v33.9h-6.2z"/><path d="m122.6 123.6h8.8c5.3 0 9.4 1.4 12.1 4.2s4.1 7.1 4.1 12.7c0 2.8-.4 5.3-1.2 7.5-.8 2.1-1.9 3.9-3.4 5.3-1.4 1.4-3.1 2.5-5.1 3.2s-4.1 1-6.5 1h-8.8zm6.2 29.2h2.1c1.7 0 3.3-.3 4.5-.9 1.3-.6 2.3-1.4 3.2-2.5s1.4-2.4 1.8-3.9.6-3.2.6-5-.2-3.5-.6-5-1-2.8-1.8-3.9-1.9-1.9-3.2-2.5-2.8-.8-4.5-.8h-2.1z"/><path d="m152 141.2h11.2v5h-11.2z"/><path d="m170.7 130.8-4.5 4.2-2.9-4.2 8.3-7.2h5.1v33.9h-6z"/><path d="m183.8 151.8c.6.3 1.3.6 2.2.9.9.4 2 .5 3.4.5 1.7 0 3-.4 4-1.2s1.8-1.8 2.3-2.9.9-2.4 1.1-3.7.3-2.5.4-3.5l-.1-.1c-.6.9-1.4 1.7-2.3 2.4-1 .7-2.3 1-3.9 1-1.2 0-2.3-.2-3.4-.7s-2-1.1-2.9-2.1-1.5-2.1-2-3.4c-.5-1.4-.8-3-.8-4.8 0-1.7.2-3.2.7-4.6.4-1.4 1.1-2.5 1.9-3.5s1.9-1.7 3.1-2.2 2.7-.8 4.3-.8c2.2 0 4 .4 5.4 1.2s2.5 2 3.4 3.4c.8 1.4 1.4 3.1 1.8 5.1.3 1.9.5 4 .5 6.1 0 2.5-.2 4.9-.6 7.2s-1.1 4.3-2.1 6.1c-1 1.7-2.3 3.1-4 4.2s-3.8 1.6-6.4 1.6c-1.6 0-2.8-.1-3.9-.4-1-.3-1.8-.5-2.4-.8zm4.1-17.7c0 1.8.3 3.4 1 4.6s1.8 1.8 3.4 1.8c1.5 0 2.5-.6 3.3-1.7.7-1.1 1.1-2.7 1.1-4.6 0-2-.3-3.6-1-4.7s-1.8-1.7-3.3-1.7c-1.6 0-2.7.6-3.4 1.7-.7 1-1.1 2.6-1.1 4.6z"/></g></svg>
