<svg width="38" height="36" viewBox="0 0 38 36" fill="none" xmlns="http://www.w3.org/2000/svg">
<path d="M38 35.8461C34.8518 35.8299 31.701 35.8136 28.5528 35.7974C28.5447 29.2599 28.5366 22.7252 28.5284 16.1878C21.8989 22.7252 15.2721 29.2599 8.64252 35.7974C5.8547 35.792 3.06417 35.7838 0.276344 35.7784C0.262798 34.1366 0.249251 32.4948 0.232996 30.8503C7.36917 23.7195 14.5026 16.5833 21.6388 9.44717C14.4268 9.47697 7.21204 9.50406 0 9.53387C3.17254 6.35862 6.34778 3.18608 9.52032 0.010837C19.0135 0.00812776 28.5068 0.00270925 38 0C38 11.9234 38 23.8577 38 35.8461Z" fill="#FF003B"/>
</svg>
