<svg width="480" height="480" viewBox="0 0 480 480" fill="none" xmlns="http://www.w3.org/2000/svg">
<rect width="480" height="480" fill="#008670"/>
<circle cx="240" cy="240" r="175" stroke="white" stroke-width="22"/>
<path fill-rule="evenodd" clip-rule="evenodd" d="M271.481 179.736C268.533 172.742 271.935 164.633 279.115 161.806C286.145 158.978 294.308 162.326 297.256 169.32C300.204 176.314 296.803 184.274 289.773 187.176C282.592 190.078 274.429 186.73 271.557 179.736H271.481ZM234.746 211.356C227.566 214.258 224.24 222.367 227.112 229.286C230.06 236.28 238.148 239.628 245.328 236.726C252.358 233.899 255.759 225.864 252.811 218.87C249.864 211.877 241.7 208.454 234.671 211.356H234.746ZM327.113 209.05C334.142 206.222 337.544 198.187 334.596 191.194C331.648 184.2 323.484 180.778 316.455 183.679C309.274 186.581 305.949 194.69 308.821 201.61C311.769 208.603 319.856 211.951 327.037 208.975L327.113 209.05ZM333.613 237.842C336.561 244.836 344.649 248.184 351.829 245.208C358.859 242.381 362.26 234.346 359.312 227.352C356.364 220.358 348.201 216.936 341.172 219.838C333.991 222.739 330.665 230.849 333.537 237.768L333.613 237.842ZM232.63 144.619C233.159 145.289 233.764 145.884 234.444 146.405L224.315 176.462V176.611C223.862 178.099 223.56 179.736 223.56 181.373C223.56 189.482 229.682 196.253 237.619 197.369H237.997C238.677 197.443 239.357 197.518 240.037 197.518C240.718 197.518 241.398 197.518 242.078 197.369H242.456C250.393 196.178 256.515 189.482 256.515 181.373C256.515 179.736 256.288 178.099 255.759 176.611V176.462L245.631 146.405C246.311 145.884 246.916 145.289 247.445 144.619C247.974 143.95 265.056 153.696 265.056 153.696V128.102L247.445 133.608C246.991 132.938 246.387 132.343 245.706 131.822C245.026 131.302 252.811 109.8 252.811 109.8H227.415L234.52 131.748C233.915 132.269 233.31 132.864 232.781 133.534C232.252 134.203 215.17 128.102 215.17 128.102V153.696L232.781 144.545L232.63 144.619ZM190.075 187.176C197.256 190.078 205.419 186.73 208.291 179.736C211.239 172.742 207.838 164.633 200.657 161.806C193.628 158.978 185.464 162.326 182.516 169.32C179.569 176.314 182.97 184.274 189.999 187.176H190.075ZM152.735 209.124C159.916 212.026 168.079 208.678 170.952 201.758C173.9 194.765 170.498 186.655 163.317 183.828C156.288 181.001 148.125 184.349 145.177 191.342C142.229 198.336 145.63 206.297 152.66 209.198L152.735 209.124ZM128.019 245.357C135.199 248.258 143.363 244.91 146.235 237.991C149.183 230.998 145.782 222.888 138.601 220.061C131.571 217.234 123.408 220.582 120.46 227.575C117.512 234.569 120.914 242.53 127.943 245.431L128.019 245.357ZM342.079 260.832C343.968 270.281 344.271 274.67 342.154 280.771C339.055 277.795 336.107 272.215 333.764 263.808L324.618 293.866C330.212 290.071 334.52 287.616 339.433 287.542C330.741 306.067 319.781 310.829 312.751 309.49C304.134 307.927 300.128 300.338 301.489 293.94C303.454 284.863 312.978 282.482 317.362 293.047C325.828 276.01 311.466 270.727 302.245 275.786C316.455 261.799 318.042 249.449 306.629 234.42C290.68 246.473 290.453 258.377 297.634 275.117C288.337 264.626 273.749 270.281 279.04 287.244C285.767 276.977 294.686 283.45 293.25 293.196C292.041 301.678 280.703 308.522 266.493 307.332C246.16 305.546 244.951 291.708 244.421 280.325C249.41 279.432 258.405 283.97 266.115 294.61L268.911 262.766C260.597 271.322 252.963 272.959 244.573 273.182C247.369 264.552 260.294 250.49 260.294 250.49H219.856C219.856 250.49 232.706 264.626 235.578 273.182C227.188 272.885 219.554 271.322 211.239 262.766L214.036 294.61C221.746 284.045 230.665 279.432 235.729 280.325C235.2 291.782 233.991 305.546 213.658 307.332C199.448 308.522 188.11 301.678 186.9 293.196C185.464 283.45 194.383 276.977 201.111 287.244C206.326 270.281 191.813 264.626 182.516 275.117C189.697 258.377 189.546 246.473 173.522 234.42C162.033 249.449 163.695 261.799 177.906 275.786C168.684 270.727 154.247 276.084 162.788 293.047C167.248 282.482 176.696 284.863 178.661 293.94C180.022 300.338 176.016 307.927 167.399 309.49C160.37 310.754 149.41 305.993 140.717 287.542C145.63 287.69 149.939 290.071 155.532 293.866L146.386 263.808C144.043 272.215 141.095 277.795 137.996 280.771C135.88 274.67 136.182 270.281 137.996 260.832L119.1 267.454C129.153 280.92 138.903 299.892 146.84 333C175.033 329.057 206.628 326.825 239.962 326.825C273.295 326.825 304.966 329.057 333.16 333C341.172 299.892 350.922 280.92 360.9 267.454L342.003 260.832H342.079Z" fill="white"/>
</svg>
