<svg class="gem-c-attachment__thumbnail-image gem-c-attachment__thumbnail-image--svg" aria-hidden="true" xmlns="http://www.w3.org/2000/svg" viewBox="0 0 99 140">
  <defs><style>.cls-1{fill:#dee0e2}.cls-2{fill:none;stroke:#dee0e2;stroke-miterlimit:10;stroke-width:2px}</style></defs>
  <path class="cls-1" d="M12 12h75v27H12zM12 59h18.75v63H12zM67 61v59H51V61h16m2-2H49v63h20V59z"/>
  <path class="cls-1" d="M49 61.05V120H32.8V61.05H49m2-2H30.75v63H51V59zM85 61.05V120H69.05V61.05H85m2-2H67v63h20V59z"/>
  <path class="cls-2" d="M30 68.5h56.5M30 77.34h56.5M30 112.7h56.5M30 95.02h56.5M30 86.18h56.5M30 103.86h56.5"/>
</svg>
